<?xml version="1.0" encoding="UTF-8" standalone="no"?>
<!DOCTYPE svg PUBLIC "-//W3C//DTD SVG 1.1//EN" "http://www.w3.org/Graphics/SVG/1.1/DTD/svg11.dtd">
<svg width="100%" height="100%" viewBox="0 0 167 404" version="1.1" xmlns="http://www.w3.org/2000/svg" xmlns:xlink="http://www.w3.org/1999/xlink" xml:space="preserve" xmlns:serif="http://www.serif.com/" style="fill-rule:evenodd;clip-rule:evenodd;stroke-linecap:round;stroke-linejoin:round;stroke-miterlimit:3;">
    <g transform="matrix(1,0,0,1,-437.5,-68.4996)">
        <g id="logo1">
            <path d="M507,453C507,453 504.101,451.292 504.228,448.38C504.757,436.318 505.752,403.595 502,386C497.167,363.333 475,317 475,317L475,298C475,298 473.552,279.568 470,272C466.167,263.833 452,249 452,249L452,230L590,230L590,249C590,249 575.833,263.833 572,272C568.448,279.568 567,298 567,298L567,317C567,317 544.833,363.333 540,386C536.248,403.595 537.243,436.318 537.772,448.38C537.899,451.292 535,453 535,453L507,453Z" style="fill:white;stroke:black;stroke-width:1px;"/>
            <path d="M504.595,437.569L537.382,437.569" style="fill:none;stroke:black;stroke-width:2px;stroke-linecap:butt;"/>
            <path d="M474.674,318C474.674,318 471.024,315.137 470.474,313.043C469.774,310.376 469.914,304.507 470.474,302C470.853,300.301 473.83,298 473.83,298L568.644,298C568.644,298 571.621,300.301 572,302C572.559,304.507 572.7,310.376 572,313.043C571.45,315.137 567.8,318 567.8,318L474.674,318Z" style="fill:white;stroke:black;stroke-width:1px;"/>
            <g>
                <path d="M521.128,213.004C523.138,213.071 548.281,213.799 555,209C562,204 562.526,200.749 564,195C565.667,188.5 561.622,178.945 564,173C566,168 571.353,165.958 576,162C580.321,158.32 582.987,152.817 584,151C587.159,145.331 589,138 589,138C589,138 587.839,144.82 589,151C589.888,155.728 591.217,159.76 591,162C590.682,165.284 586,168 584,177C583.42,179.608 585.543,186.669 587,189C592,197 594,205 590,216C587.965,221.597 580.216,227.933 580,228C579.788,228.065 523.236,228.003 521.064,228C518.892,228.003 462.34,228.065 462.128,228C461.912,227.933 454.163,221.597 452.128,216C448.128,205 450.128,197 455.128,189C456.585,186.669 458.708,179.608 458.128,177C456.128,168 451.446,165.284 451.128,162C450.911,159.76 452.239,155.728 453.128,151C454.289,144.82 453.128,138 453.128,138C453.128,138 454.969,145.331 458.128,151C459.141,152.817 461.807,158.32 466.128,162C470.775,165.958 476.128,168 478.128,173C480.506,178.945 476.461,188.5 478.128,195C479.602,200.749 480.128,204 487.128,209C493.846,213.799 518.989,213.071 521,213.004L521,213L521.064,213.002L521.128,213L521.128,213.004Z" style="fill:white;stroke:black;stroke-width:1px;"/>
                <path d="M538,69C538.015,68.839 522.645,112.843 501,145C495.214,157.012 482.92,205.125 521,204C528.219,203.304 551,197.362 551,169C551,159 549.176,151.815 547,149C545.327,146.837 542,141 539.021,139.56C534,150 527,158 527,158C527,158 550.352,131.997 541,113C531.648,94.003 534.922,102.61 538,69Z" style="fill:white;stroke:black;stroke-width:1px;"/>
            </g>
            <path d="M450,249C450,249 444,242.667 442,239C440.132,235.575 438,227 438,227L604,227C604,227 601.868,235.575 600,239C598,242.667 592,249 592,249L521,248.213L450,249Z" style="fill:white;stroke:black;stroke-width:1px;"/>
            <g transform="matrix(1,0,0,1,3,0)">
                <g transform="matrix(1,0,0,1,230,30)">
                    <circle cx="265.5" cy="233.5" r="9.5" style="fill:none;stroke:black;stroke-width:1px;"/>
                </g>
                <g transform="matrix(1,0,0,1,252,30)">
                    <circle cx="265.5" cy="233.5" r="9.5" style="fill:none;stroke:black;stroke-width:1px;"/>
                </g>
                <g transform="matrix(1,0,0,1,241,43)">
                    <circle cx="265.5" cy="233.5" r="9.5" style="fill:none;stroke:black;stroke-width:1px;"/>
                </g>
                <g transform="matrix(1,0,0,1,263,43)">
                    <circle cx="265.5" cy="233.5" r="9.5" style="fill:none;stroke:black;stroke-width:1px;"/>
                </g>
                <g transform="matrix(1,0,0,1,274,30)">
                    <circle cx="265.5" cy="233.5" r="9.5" style="fill:none;stroke:black;stroke-width:1px;"/>
                </g>
            </g>
            <g transform="matrix(1,0,0,1.63636,0,-288.273)">
                <path d="M521,453L521,464" style="fill:none;stroke:black;stroke-width:1.47px;stroke-linecap:butt;"/>
            </g>
        </g>
    </g>
</svg>
